<mxfile host="app.diagrams.net" modified="2022-05-24T16:55:26.877Z" agent="5.0 (Windows NT 10.0; Win64; x64) AppleWebKit/537.36 (KHTML, like Gecko) Chrome/101.0.4951.67 Safari/537.36" etag="jdQMQIgtPaoxrt1LwzU6" version="18.1.2" type="github">
  <diagram id="ejXfuOjYI4BqNlUwObGy" name="Page-1">
    <mxGraphModel dx="8680" dy="5200" grid="1" gridSize="10" guides="1" tooltips="1" connect="1" arrows="1" fold="1" page="1" pageScale="1" pageWidth="5000" pageHeight="5000" math="0" shadow="0">
      <root>
        <mxCell id="0" />
        <mxCell id="1" parent="0" />
        <mxCell id="i1NRtbyLnXA0qhmJ5hBK-2" style="edgeStyle=orthogonalEdgeStyle;rounded=0;orthogonalLoop=1;jettySize=auto;html=1;exitX=1;exitY=0.5;exitDx=0;exitDy=0;" edge="1" parent="1" source="i1NRtbyLnXA0qhmJ5hBK-1" target="i1NRtbyLnXA0qhmJ5hBK-3">
          <mxGeometry relative="1" as="geometry">
            <mxPoint x="320" y="150" as="targetPoint" />
          </mxGeometry>
        </mxCell>
        <mxCell id="i1NRtbyLnXA0qhmJ5hBK-1" value="&lt;b&gt;MAKE ACTIVE INCOME&lt;/b&gt;" style="rounded=0;whiteSpace=wrap;html=1;fillColor=#f8cecc;strokeColor=#b85450;" vertex="1" parent="1">
          <mxGeometry x="80" y="120" width="160" height="60" as="geometry" />
        </mxCell>
        <mxCell id="i1NRtbyLnXA0qhmJ5hBK-5" style="edgeStyle=orthogonalEdgeStyle;rounded=0;orthogonalLoop=1;jettySize=auto;html=1;exitX=1;exitY=0.5;exitDx=0;exitDy=0;" edge="1" parent="1" source="i1NRtbyLnXA0qhmJ5hBK-3" target="i1NRtbyLnXA0qhmJ5hBK-6">
          <mxGeometry relative="1" as="geometry">
            <mxPoint x="640" y="149.9655172413793" as="targetPoint" />
          </mxGeometry>
        </mxCell>
        <mxCell id="i1NRtbyLnXA0qhmJ5hBK-3" value="&lt;b&gt;ACTIVE INCOME&lt;/b&gt;" style="rounded=0;whiteSpace=wrap;html=1;fillColor=#e1d5e7;strokeColor=#9673a6;" vertex="1" parent="1">
          <mxGeometry x="360" y="120" width="160" height="60" as="geometry" />
        </mxCell>
        <mxCell id="i1NRtbyLnXA0qhmJ5hBK-4" value="WORK" style="text;html=1;strokeColor=none;fillColor=none;align=center;verticalAlign=middle;whiteSpace=wrap;rounded=0;" vertex="1" parent="1">
          <mxGeometry x="280" y="120" width="40" height="30" as="geometry" />
        </mxCell>
        <mxCell id="i1NRtbyLnXA0qhmJ5hBK-7" style="edgeStyle=orthogonalEdgeStyle;rounded=0;orthogonalLoop=1;jettySize=auto;html=1;exitX=1;exitY=0.5;exitDx=0;exitDy=0;" edge="1" parent="1" source="i1NRtbyLnXA0qhmJ5hBK-6" target="i1NRtbyLnXA0qhmJ5hBK-8">
          <mxGeometry relative="1" as="geometry">
            <mxPoint x="920" y="150" as="targetPoint" />
          </mxGeometry>
        </mxCell>
        <mxCell id="i1NRtbyLnXA0qhmJ5hBK-6" value="&lt;b&gt;INVEST IN PASSIVE INCOME&lt;/b&gt;" style="rounded=0;whiteSpace=wrap;html=1;fillColor=#dae8fc;strokeColor=#6c8ebf;" vertex="1" parent="1">
          <mxGeometry x="640" y="120" width="160" height="60" as="geometry" />
        </mxCell>
        <mxCell id="i1NRtbyLnXA0qhmJ5hBK-9" style="edgeStyle=orthogonalEdgeStyle;rounded=0;orthogonalLoop=1;jettySize=auto;html=1;exitX=0.5;exitY=1;exitDx=0;exitDy=0;entryX=0.444;entryY=0.983;entryDx=0;entryDy=0;entryPerimeter=0;" edge="1" parent="1" source="i1NRtbyLnXA0qhmJ5hBK-8" target="i1NRtbyLnXA0qhmJ5hBK-3">
          <mxGeometry relative="1" as="geometry" />
        </mxCell>
        <mxCell id="i1NRtbyLnXA0qhmJ5hBK-8" value="&lt;b&gt;PASSIVE INCOME&lt;/b&gt;" style="rounded=0;whiteSpace=wrap;html=1;fillColor=#ffe6cc;strokeColor=#d79b00;" vertex="1" parent="1">
          <mxGeometry x="920" y="120" width="160" height="60" as="geometry" />
        </mxCell>
        <mxCell id="i1NRtbyLnXA0qhmJ5hBK-10" value="$$" style="text;html=1;strokeColor=none;fillColor=none;align=center;verticalAlign=middle;whiteSpace=wrap;rounded=0;" vertex="1" parent="1">
          <mxGeometry x="550" y="120" width="60" height="30" as="geometry" />
        </mxCell>
        <mxCell id="i1NRtbyLnXA0qhmJ5hBK-11" value="$$" style="text;html=1;strokeColor=none;fillColor=none;align=center;verticalAlign=middle;whiteSpace=wrap;rounded=0;" vertex="1" parent="1">
          <mxGeometry x="830" y="119" width="60" height="30" as="geometry" />
        </mxCell>
        <mxCell id="i1NRtbyLnXA0qhmJ5hBK-12" value="&lt;b&gt;&lt;font style=&quot;font-size: 31px;&quot;&gt;$$$&lt;/font&gt;&lt;/b&gt;" style="text;html=1;strokeColor=none;fillColor=none;align=center;verticalAlign=middle;whiteSpace=wrap;rounded=0;" vertex="1" parent="1">
          <mxGeometry x="650" y="200" width="140" height="60" as="geometry" />
        </mxCell>
      </root>
    </mxGraphModel>
  </diagram>
</mxfile>
